<svg width="34" height="32" viewBox="0 0 34 32" fill="none" xmlns="http://www.w3.org/2000/svg">
<path d="M29.6867 4.4754C28.9537 3.69063 28.0833 3.06809 27.1254 2.64335C26.1675 2.21861 25.1407 2 24.1038 2C23.0669 2 22.0402 2.21861 21.0822 2.64335C20.1243 3.06809 19.254 3.69063 18.5209 4.4754L16.9996 6.10333L15.4783 4.4754C13.9976 2.89096 11.9894 2.00082 9.89541 2.00082C7.80142 2.00082 5.79319 2.89096 4.31251 4.4754C2.83184 6.05985 2 8.20882 2 10.4496C2 12.6903 2.83184 14.8393 4.31251 16.4237L5.83382 18.0517L16.9996 30L28.1654 18.0517L29.6867 16.4237C30.4201 15.6393 31.0019 14.708 31.3988 13.6829C31.7957 12.6579 32 11.5592 32 10.4496C32 9.33999 31.7957 8.24129 31.3988 7.21622C31.0019 6.19115 30.4201 5.25981 29.6867 4.4754Z" fill="#F7A200" stroke="#F7A200" stroke-width="3" stroke-linecap="round" stroke-linejoin="round"/>
</svg>
