<svg width="25" height="21" viewBox="0 0 25 21" fill="none" xmlns="http://www.w3.org/2000/svg">
<path d="M21.6414 2.60999C21.111 2.099 20.4813 1.69364 19.7881 1.41708C19.095 1.14052 18.3521 0.998169 17.6018 0.998169C16.8515 0.998169 16.1086 1.14052 15.4155 1.41708C14.7223 1.69364 14.0926 2.099 13.5622 2.60999L12.4614 3.66999L11.3606 2.60999C10.2893 1.5783 8.83618 0.998704 7.32103 0.998704C5.80588 0.998704 4.35279 1.5783 3.28142 2.60999C2.21005 3.64169 1.60815 5.04096 1.60815 6.49999C1.60815 7.95903 2.21005 9.3583 3.28142 10.39L4.38219 11.45L12.4614 19.23L20.5406 11.45L21.6414 10.39C22.1721 9.87924 22.593 9.27281 22.8802 8.60535C23.1674 7.93789 23.3152 7.22248 23.3152 6.49999C23.3152 5.77751 23.1674 5.0621 22.8802 4.39464C22.593 3.72718 22.1721 3.12075 21.6414 2.60999Z" stroke="#333333" stroke-width="2" stroke-linecap="round" stroke-linejoin="round"/>
</svg>
