<svg xmlns="http://www.w3.org/2000/svg" width="64" height="16" fill="none" viewBox="0 0 64 16"><rect width="63.845" height="16" fill="#D0011B" rx="2"/><path fill="#fff" fill-rule="evenodd" d="M12.925 3.001h-.95a.18.18 0 0 0-.142.069l-.58.626a2 2 0 0 0-.118.125l-.037.044-.262.283c-.477.48-1.202 1.01-2.27 1.022h-.032c-1.125 0-1.87-.625-2.313-1.076l-.95-1.026A.18.18 0 0 0 5.132 3h-.95a.18.18 0 0 0-.128.052.18.18 0 0 0-.053.126v9.642c0 .047.02.092.053.126.034.033.08.052.127.052h.95a.18.18 0 0 0 .127-.052.18.18 0 0 0 .053-.126V5.007q.331.284.687.537c.598.443 1.441.862 2.54.862h.041a4.3 4.3 0 0 0 2.407-.764h.008l.081-.063a5 5 0 0 0 .211-.16l.509-.388v7.789a.18.18 0 0 0 .18.178h.95a.18.18 0 0 0 .128-.053.18.18 0 0 0 .053-.125V3.18a.18.18 0 0 0-.053-.126.18.18 0 0 0-.127-.053m8.18 3.747h-.948a.18.18 0 0 0-.128.053.18.18 0 0 0-.053.125v.591c-.574-.48-1.36-.81-2.18-.81-1.804 0-3.266 1.41-3.266 3.144s1.462 3.144 3.266 3.144a3.46 3.46 0 0 0 2.18-.794v.618a.18.18 0 0 0 .111.166.2.2 0 0 0 .07.014h.95a.18.18 0 0 0 .127-.053.18.18 0 0 0 .053-.125V6.929a.18.18 0 0 0-.112-.167.2.2 0 0 0-.07-.014m-3.25 5.09c-1.168 0-2.115-.889-2.115-1.984s.947-1.983 2.116-1.983c1.168 0 2.116.888 2.116 1.983s-.948 1.983-2.116 1.983m7.898.182a.18.18 0 0 0-.02-.133.18.18 0 0 0-.11-.081l-.425-.106-.012-.002c-.65-.133-.886-.344-.917-.929v-7.59a.18.18 0 0 0-.053-.125.18.18 0 0 0-.127-.051h-.877a.18.18 0 0 0-.127.051.18.18 0 0 0-.053.125v7.268c-.06 1.704.928 2.24 1.844 2.44l.438.108a.18.18 0 0 0 .136-.02.18.18 0 0 0 .083-.108l.1-.378.008-.031.002-.011zm3.221-.134a.17.17 0 0 1 .02.134l-.109.427-.01.042-.1.378a.18.18 0 0 1-.083.108.18.18 0 0 1-.137.02l-.437-.109c-.916-.2-1.903-.735-1.844-2.439V3.18c0-.047.02-.092.053-.125a.18.18 0 0 1 .127-.051h.877c.047 0 .093.018.127.051a.18.18 0 0 1 .053.125v7.59c.03.585.268.796.917.929h.005l.007.002.425.106q.07.018.11.08" clip-rule="evenodd"/><path fill="#fff" d="M33.5 3H33v10h.5zm8.866 10a4.6 4.6 0 0 1-1.91-.404 4.9 4.9 0 0 1-1.539-1.088 5.2 5.2 0 0 1-1.04-1.587 5.13 5.13 0 0 1 0-3.857 5.1 5.1 0 0 1 1.026-1.59 4.8 4.8 0 0 1 1.545-1.08 4.86 4.86 0 0 1 3.834 0c.58.254 1.104.62 1.545 1.074.44.458.79.995 1.034 1.582.255.615.384 1.274.38 1.94a5.1 5.1 0 0 1-.38 1.931 4.98 4.98 0 0 1-2.58 2.685 4.5 4.5 0 0 1-1.915.393m.014-7.714a2.5 2.5 0 0 0-1.034.213 2.7 2.7 0 0 0-.823.58c-.234.246-.42.535-.546.85a2.8 2.8 0 0 0-.197 1.05c-.004.367.063.731.197 1.072.124.323.31.618.546.87a2.55 2.55 0 0 0 1.857.776 2.5 2.5 0 0 0 1.834-.776 2.8 2.8 0 0 0 .739-1.932 2.77 2.77 0 0 0-.74-1.901 2.5 2.5 0 0 0-.813-.58 2.5 2.5 0 0 0-1.02-.222m5.995-2.145h3.437c.235 0 .443 0 .647.017.475.017.945.11 1.39.275.417.151.797.387 1.119.691.321.314.573.692.738 1.11.192.486.285 1.005.275 1.528a3.73 3.73 0 0 1-.502 2.016c-.321.52-.786.934-1.339 1.194l2.099 2.904h-2.617l-1.78-2.508H50.61v2.508a2.237 2.237 0 0 1-2.234-2.236zm2.556 5.023h1.46c.361-.007.71-.13.997-.35a1.25 1.25 0 0 0 .403-1.033 1.25 1.25 0 0 0-.403-1.027 1.7 1.7 0 0 0-1.013-.36h-.282l-.396-.013H50.61v2.813zm8.913 4.715a2.434 2.434 0 0 1-2.434-2.434V3.141a2.436 2.436 0 0 1 2.434 2.436z"/></svg>