<svg width="46" height="46" viewBox="0 0 46 46" fill="none" xmlns="http://www.w3.org/2000/svg">
<path d="M36.4166 15.3333C34.8194 15.3333 33.4617 14.7743 32.3437 13.6563C31.2256 12.5382 30.6666 11.1806 30.6666 9.58334C30.6666 7.98612 31.2256 6.62848 32.3437 5.51043C33.4617 4.39237 34.8194 3.83334 36.4166 3.83334C38.0138 3.83334 39.3714 4.39237 40.4895 5.51043C41.6076 6.62848 42.1666 7.98612 42.1666 9.58334C42.1666 11.1806 41.6076 12.5382 40.4895 13.6563C39.3714 14.7743 38.0138 15.3333 36.4166 15.3333ZM7.66659 38.3333C6.61242 38.3333 5.70999 37.958 4.95929 37.2073C4.2086 36.4566 3.83325 35.5542 3.83325 34.5V11.5C3.83325 10.4458 4.2086 9.54341 4.95929 8.79272C5.70999 8.04202 6.61242 7.66668 7.66659 7.66668H27.0249C26.8971 8.30557 26.8333 8.94445 26.8333 9.58334C26.8333 10.2222 26.8971 10.8611 27.0249 11.5C27.2485 12.5222 27.6159 13.4726 28.127 14.3511C28.6381 15.2295 29.261 16.0042 29.9958 16.675L22.9999 21.0833L7.66659 11.5V15.3333L22.9999 24.9167L33.1103 18.5917C33.6534 18.7833 34.1964 18.9271 34.7395 19.0229C35.2826 19.1188 35.8416 19.1667 36.4166 19.1667C37.4388 19.1667 38.4451 19.007 39.4353 18.6875C40.4256 18.3681 41.336 17.8889 42.1666 17.25V34.5C42.1666 35.5542 41.7912 36.4566 41.0405 37.2073C40.2899 37.958 39.3874 38.3333 38.3333 38.3333H7.66659Z" fill="#7952B3"/>
</svg>
