<svg width="25" height="25" viewBox="0 0 25 25" fill="none" xmlns="http://www.w3.org/2000/svg">
<path d="M1.04175 1.04163H5.20842L8.00008 14.9895C8.09534 15.4691 8.35624 15.8999 8.73711 16.2065C9.11798 16.5131 9.59456 16.676 10.0834 16.6666H20.2084C20.6973 16.676 21.1739 16.5131 21.5547 16.2065C21.9356 15.8999 22.1965 15.4691 22.2917 14.9895L23.9584 6.24996H6.25008M10.4167 21.875C10.4167 22.4503 9.95038 22.9166 9.37508 22.9166C8.79979 22.9166 8.33342 22.4503 8.33342 21.875C8.33342 21.2997 8.79979 20.8333 9.37508 20.8333C9.95038 20.8333 10.4167 21.2997 10.4167 21.875ZM21.8751 21.875C21.8751 22.4503 21.4087 22.9166 20.8334 22.9166C20.2581 22.9166 19.7917 22.4503 19.7917 21.875C19.7917 21.2997 20.2581 20.8333 20.8334 20.8333C21.4087 20.8333 21.8751 21.2997 21.8751 21.875Z" stroke="#333333" stroke-width="2" stroke-linecap="round" stroke-linejoin="round"/>
</svg>
