<svg width="25" height="25" viewBox="0 0 25 25" fill="none" xmlns="http://www.w3.org/2000/svg">
<path d="M3.125 6.24998L6.25 2.08331H18.75L21.875 6.24998M3.125 6.24998V20.8333C3.125 21.3858 3.34449 21.9158 3.73519 22.3065C4.12589 22.6972 4.6558 22.9166 5.20833 22.9166H19.7917C20.3442 22.9166 20.8741 22.6972 21.2648 22.3065C21.6555 21.9158 21.875 21.3858 21.875 20.8333V6.24998M3.125 6.24998H21.875M16.6667 10.4166C16.6667 11.5217 16.2277 12.5815 15.4463 13.3629C14.6649 14.1443 13.6051 14.5833 12.5 14.5833C11.3949 14.5833 10.3351 14.1443 9.55372 13.3629C8.77232 12.5815 8.33333 11.5217 8.33333 10.4166" stroke="white" stroke-width="2" stroke-linecap="round" stroke-linejoin="round"/>
</svg>
